<?xml version="1.0" standalone="no"?><!DOCTYPE svg PUBLIC "-//W3C//DTD SVG 1.1//EN" "http://www.w3.org/Graphics/SVG/1.1/DTD/svg11.dtd"><svg t="1724647276679" class="icon" viewBox="0 0 1024 1024" version="1.1" xmlns="http://www.w3.org/2000/svg" p-id="5175" xmlns:xlink="http://www.w3.org/1999/xlink" width="200" height="200"><path d="M723.529143 900.242286c8.192 0 15.36-2.048 21.504-6.144a38.546286 38.546286 0 0 0 18.432-33.792 36.132571 36.132571 0 0 0-6.144-20.48L568.905143 549.010286c58.002286-5.485714 104.813714-26.331429 140.288-62.464 35.474286-36.205714 53.248-87.04 53.248-152.576 0-43.666286-9.362286-81.554286-28.16-113.664a186.514286 186.514286 0 0 0-76.8-73.216 232.155429 232.155429 0 0 0-108.032-25.088H296.521143a39.277714 39.277714 0 0 0-28.16 11.264 36.790857 36.790857 0 0 0-11.776 27.648v699.392c0 10.971429 3.949714 20.333714 11.776 28.16a38.4 38.4 0 0 0 28.16 11.776c10.971429 0 20.114286-3.949714 27.648-11.776a39.277714 39.277714 0 0 0 11.264-28.16V550.034286h150.528l204.8 331.776a32.914286 32.914286 0 0 0 14.336 13.824 40.96 40.96 0 0 0 18.432 4.608z m-174.08-418.816H335.433143V190.610286h214.016c42.349714 0 75.410286 13.165714 99.328 39.424 23.917714 26.331429 35.84 61.586286 35.84 105.984 0 43.666286-11.922286 78.848-35.84 105.472-23.917714 26.624-57.051429 39.936-99.328 39.936z" fill="#ab0707" p-id="5176"></path></svg>